<svg xmlns="http://www.w3.org/2000/svg" viewBox="0 0 430 430">
  <defs>
    <style>
      .cls-1 {
        isolation: isolate;
      }

      .cls-2, .cls-3 {
        fill: #ffc738;
      }

      .cls-3 {
        mix-blend-mode: multiply;
        opacity: 0.5;
      }

      .cls-4 {
        fill: #121331;
      }

      .cls-5 {
        fill: #b26836;
      }
    </style>
  </defs>
  <g class="cls-1">
    <g id="Warstwa_1" data-name="Warstwa 1">
      <g>
        <path class="cls-2" d="M387.34,215A172.76,172.76,0,1,1,214.67,42.33,171.84,171.84,0,0,1,387.34,215Z"/>
        <path class="cls-3" d="M387.34,215A172.76,172.76,0,1,1,214.67,42.33,171.84,171.84,0,0,1,387.34,215Z"/>
        <path class="cls-2" d="M364,301.79a173.37,173.37,0,0,1-81.43,72l-30.72-34.74L96.07,162.94l-30.7-34.73a173.37,173.37,0,0,1,81.43-72l30.72,34.74L333.28,267.06Z"/>
        <path class="cls-4" d="M215.06,391.44c-97.3,0-176.45-79.15-176.45-176.44S117.76,38.56,215.06,38.56,391.5,117.71,391.5,215,312.35,391.44,215.06,391.44Zm0-345.88c-93.43,0-169.45,76-169.45,169.44s76,169.44,169.45,169.44S384.5,308.43,384.5,215,308.48,45.56,215.06,45.56Z"/>
        <path class="cls-5" d="M215.72,345.65c-71.83,0-130.27-58.44-130.27-130.27S143.89,85.11,215.72,85.11,346,143.55,346,215.38,287.55,345.65,215.72,345.65Zm0-253.54A123.27,123.27,0,1,0,339,215.38,123.4,123.4,0,0,0,215.72,92.11Z"/>
        <path class="cls-5" d="M216.15,300.72a3.49,3.49,0,0,1-3.07-1.83L169.6,218.54a3.54,3.54,0,0,1-.29-2.66l.09-.25a3,3,0,0,1,.18-.41L211.93,132a3.52,3.52,0,0,1,3.12-1.91h0a3.5,3.5,0,0,1,3.11,1.91l41.6,81.42a2.26,2.26,0,0,1,.11.22,1.8,1.8,0,0,1,.08.21,3.42,3.42,0,0,1,0,2.4h0c0,.06,0,.13-.08.2h0a1,1,0,0,0-.07.15l-40.52,82.21a3.5,3.5,0,0,1-3.07,2ZM180,223l36,66.6,33.46-67.89-32,13a3.5,3.5,0,0,1-2.43.08Zm-2.35-8.17L216,227.73l35.78-14.54-36.76-71.94Z"/>
      </g>
    </g>
  </g>
</svg>
