<svg xmlns="http://www.w3.org/2000/svg" viewBox="0 0 430 430">
  <defs>
    <style>
      .cls-1 {
        isolation: isolate;
      }

      .cls-2, .cls-3 {
        fill: #ffc738;
      }

      .cls-3 {
        mix-blend-mode: multiply;
        opacity: 0.5;
      }

      .cls-4 {
        fill: #b26836;
      }

      .cls-5 {
        fill: #121331;
      }
    </style>
  </defs>
  <g class="cls-1">
    <g id="Warstwa_1" data-name="Warstwa 1">
      <g>
        <path class="cls-2" d="M375.12,215A160.22,160.22,0,1,1,215,54.87,159.34,159.34,0,0,1,375.12,215Z"/>
        <path class="cls-3" d="M375.12,215A160.22,160.22,0,1,1,215,54.87,159.34,159.34,0,0,1,375.12,215Z"/>
        <path class="cls-2" d="M353.45,295.47a160.76,160.76,0,0,1-75.51,66.8l-28.49-32.22L105,166.71l-28.47-32.2a160.76,160.76,0,0,1,75.51-66.8l28.49,32.22L325,263.27Z"/>
        <path class="cls-4" d="M215,338.58A123.59,123.59,0,1,1,338.59,215,123.73,123.73,0,0,1,215,338.58ZM215,98.4A116.59,116.59,0,1,0,331.59,215,116.73,116.73,0,0,0,215,98.4Z"/>
        <path class="cls-4" d="M222.68,285.23a3.5,3.5,0,0,1-3.5-3.5V263.32h-18v18.41a3.5,3.5,0,0,1-7,0V263.32H177.31a3.5,3.5,0,0,1,0-7h16.91V173.65H177.31a3.5,3.5,0,0,1,0-7h16.91V148.29a3.5,3.5,0,0,1,7,0v18.37h18V148.29a3.5,3.5,0,0,1,7,0v18.4a29.5,29.5,0,0,1,19.36,8,23.44,23.44,0,0,1,7.24,16.86,24.13,24.13,0,0,1-8.24,18,28.49,28.49,0,0,1-4.32,3.19c9.47,4.42,16,13.45,16,23.84a25.51,25.51,0,0,1-8.69,19A30.44,30.44,0,0,1,227,263.32h-.86v18.41A3.5,3.5,0,0,1,222.68,285.23Zm-21.46-28.91H227a23.44,23.44,0,0,0,15.76-5.93,18.58,18.58,0,0,0,6.39-13.79c0-10.88-9.94-19.73-22.15-19.73H201.22Zm0-46.45h24a21.79,21.79,0,0,0,14.65-5.5,17.22,17.22,0,0,0,5.93-12.79,16.51,16.51,0,0,0-5.13-11.85c-4.19-4.08-10.22-6.24-17-6.07H201.22Z"/>
        <path class="cls-5" d="M215,378.63c-90.22,0-163.62-73.4-163.62-163.62S124.78,51.39,215,51.39,378.62,124.79,378.62,215,305.22,378.63,215,378.63Zm0-320.24C128.64,58.39,58.38,128.65,58.38,215S128.64,371.63,215,371.63,371.62,301.37,371.62,215,301.36,58.39,215,58.39Z"/>
      </g>
    </g>
  </g>
</svg>
