<svg xmlns="http://www.w3.org/2000/svg" viewBox="0 0 430 430">
  <defs>
    <style>
      .cls-1 {
        isolation: isolate;
      }

      .cls-2, .cls-3 {
        fill: #ffc738;
      }

      .cls-3 {
        mix-blend-mode: multiply;
        opacity: 0.5;
      }

      .cls-4 {
        fill: #b26836;
      }

      .cls-5 {
        fill: #121331;
      }
    </style>
  </defs>
  <g class="cls-1">
    <g id="Warstwa_1" data-name="Warstwa 1">
      <g>
        <path class="cls-2" d="M375.12,215A160.22,160.22,0,1,1,215,54.88,159.34,159.34,0,0,1,375.12,215Z"/>
        <path class="cls-3" d="M375.12,215A160.22,160.22,0,1,1,215,54.88,159.34,159.34,0,0,1,375.12,215Z"/>
        <path class="cls-2" d="M353.45,295.48a160.76,160.76,0,0,1-75.51,66.8l-28.49-32.22L105,166.72l-28.47-32.2a160.76,160.76,0,0,1,75.51-66.8l28.49,32.22L325,263.28Z"/>
        <path class="cls-4" d="M215,338.59A123.59,123.59,0,1,1,338.59,215,123.73,123.73,0,0,1,215,338.59Zm0-240.18A116.59,116.59,0,1,0,331.59,215,116.72,116.72,0,0,0,215,98.41Z"/>
        <path class="cls-5" d="M215,378.62c-90.22,0-163.62-73.4-163.62-163.62S124.78,51.38,215,51.38,378.62,124.78,378.62,215,305.22,378.62,215,378.62Zm0-320.24C128.64,58.38,58.38,128.64,58.38,215S128.64,371.62,215,371.62,371.62,301.36,371.62,215,301.36,58.38,215,58.38Z"/>
        <path class="cls-4" d="M215,285.22a3.5,3.5,0,0,1-3.5-3.5V263a45.16,45.16,0,0,1-29.45-16.72,3.5,3.5,0,0,1,5.48-4.35,38.3,38.3,0,0,0,34.09,14.15,26.84,26.84,0,0,0,13.78-5.52,16.65,16.65,0,0,0,6.3-12C242,225.67,232,222,215.4,217.38c-14.77-4.09-31.5-8.71-29.47-27.83,1-9.54,8.36-18.11,18.29-21.33a32.64,32.64,0,0,1,7.28-1.46V148.28a3.5,3.5,0,1,1,7,0v18.6a39.38,39.38,0,0,1,29,19.11,3.5,3.5,0,1,1-6,3.53c-7.17-12.27-22.6-18.7-35.11-14.64-7.23,2.34-12.78,8.68-13.49,15.41-1.34,12.57,8.39,15.92,24.37,20.34,15,4.13,31.91,8.82,31.44,28.06A23.69,23.69,0,0,1,239.86,256,33.71,33.71,0,0,1,222.5,263c-1.33.17-2.67.28-4,.32v18.37A3.5,3.5,0,0,1,215,285.22Z"/>
      </g>
    </g>
  </g>
</svg>
